<?xml version="1.0" standalone="no"?>
<!DOCTYPE svg PUBLIC "-//W3C//DTD SVG 1.1//EN" "http://www.w3.org/Graphics/SVG/1.1/DTD/svg11.dtd">
<!--Generator: Xara Designer (www.xara.com), SVG filter version: 6.3.0.31-->
<svg fill="none" fill-rule="evenodd" stroke="black" stroke-width="0.501" stroke-linejoin="bevel" stroke-miterlimit="10" font-family="Times New Roman" font-size="16" style="font-variant-ligatures:none" xmlns:xlink="http://www.w3.org/1999/xlink" xmlns="http://www.w3.org/2000/svg" version="1.1" overflow="visible" width="273.75pt" height="60pt" viewBox="0 -60 273.75 60">
 <defs>
	</defs>
 <g id="Layer 1" transform="scale(1 -1)">
  <g id="Group" fill-rule="nonzero" stroke-linejoin="miter" stroke="none" stroke-width="0.093">
   <path d="M 25.195,7.946 L 28.139,13.414 C 31.034,18.781 34.727,20.048 39.792,20.048 L 48.805,20.048 C 53.865,20.048 56.197,18.781 53.306,13.414 L 50.359,7.946 C 47.466,2.579 43.773,1.316 38.708,1.316 L 29.696,1.316 C 24.635,1.316 22.304,2.579 25.195,7.946 Z M 91.265,6.308 L 91.944,7.571 L 97.551,7.571 C 96.527,5.626 97.229,5.472 98.846,5.472 L 105.718,5.472 C 106.904,5.472 108.18,5.601 108.944,7.014 C 109.801,8.604 109.2,8.709 101.976,8.709 C 93.541,8.709 93.123,9.718 95.548,14.213 C 97.333,17.518 99.012,20.073 106.082,20.073 L 113.909,20.073 C 120.38,20.073 119.802,17.873 118.07,14.669 L 117.757,14.088 L 112.151,14.088 C 112.87,15.424 113.019,15.977 110.445,15.977 L 104.23,15.977 C 102.967,15.977 101.877,15.549 101.346,14.564 C 100.486,12.974 101.146,12.926 107.168,12.95 C 115.894,12.974 117.629,12.441 114.757,7.115 C 112.104,2.191 110.001,1.384 102.552,1.384 L 95.757,1.384 C 90.654,1.384 89.127,2.341 91.265,6.308 Z M 50.057,3.374 L 58.637,19.29 L 76.046,19.29 L 74.054,15.593 L 61.526,15.593 L 60.152,13.047 L 72.022,13.047 L 70.246,9.75 L 58.373,9.75 L 54.825,3.374 L 50.057,3.374 Z M 69.966,3.386 L 78.544,19.302 L 95.95,19.302 L 93.963,15.605 L 81.433,15.605 L 80.058,13.059 L 91.931,13.059 L 90.152,9.762 L 78.28,9.762 L 74.731,3.386 L 69.966,3.386 Z M 180.257,3.462 L 188.837,19.379 L 206.243,19.379 L 204.254,15.682 L 191.724,15.682 L 190.351,13.132 L 202.222,13.132 L 200.446,9.835 L 188.573,9.835 L 187.2,7.288 L 200.017,7.288 L 197.952,3.462 L 180.257,3.462 Z M 157.904,3.499 L 166.479,19.415 L 181.207,19.415 C 184.967,19.415 184.967,17.546 183.43,14.685 L 182.884,13.676 C 181.736,11.546 180.577,10.291 178.05,9.766 L 178.025,9.722 C 179.338,9.455 180.202,8.822 178.789,6.203 L 177.333,3.499 L 172.452,3.499 L 173.485,5.412 C 174.386,7.082 174.197,7.631 172.681,7.631 L 165.009,7.631 L 162.782,3.499 L 157.904,3.499 Z M 115.102,3.515 L 123.679,19.431 L 128.511,19.431 L 125.194,13.188 L 132.863,13.188 L 136.316,19.431 L 140.95,19.431 L 132.688,3.515 L 127.61,3.515 L 131.087,9.891 L 123.415,9.891 L 120.047,3.515 L 115.102,3.515 Z M 137.271,9.189 L 139.762,13.814 C 142.209,18.354 145.331,19.423 149.614,19.423 L 157.235,19.423 C 161.516,19.423 163.488,18.354 161.041,13.814 L 158.552,9.189 C 156.105,4.653 152.981,3.584 148.7,3.584 L 141.077,3.584 C 136.798,3.584 134.826,4.653 137.271,9.189 Z M 45.525,9.693 L 46.591,11.671 C 47.819,13.947 48.017,15.339 45.052,15.339 L 38.469,15.339 C 35.509,15.339 34.203,13.947 32.973,11.671 L 31.912,9.693 C 30.477,7.038 30.486,6.021 33.146,6.021 L 40.334,6.021 C 42.994,6.021 44.095,7.038 45.525,9.693 Z M 154.464,10.666 L 155.366,12.337 C 156.402,14.266 156.569,15.444 154.064,15.444 L 148.498,15.444 C 145.993,15.444 144.887,14.266 143.848,12.337 L 142.951,10.666 C 141.738,8.418 141.745,7.563 143.994,7.563 L 150.072,7.563 C 152.323,7.563 153.254,8.418 154.464,10.666 Z M 177.91,13.257 L 178.194,13.785 C 178.954,15.194 178.394,15.456 176.853,15.456 L 169.228,15.456 L 167.141,11.586 L 175.208,11.586 C 176.527,11.586 177.295,12.115 177.91,13.257 Z" fill="#ff6000" marker-start="none" marker-end="none"/>
   <path d="M 9.516,32.825 C 10.462,33.858 39.119,63.636 111.485,59.629 C 113.745,58.535 57.789,62.611 17.496,32.554 C 17.496,32.554 -6.525,12.123 18.944,0.028 C 19.812,-0.634 -13.395,9.475 9.516,32.825 Z M 233.051,34.431 C 231.193,36.082 175.885,34.225 105.667,34.617 C 105.667,34.617 91.545,35.044 88.165,43.668 C 36.472,42.7 28.09,35.912 27.284,35.117 C 27.262,35.093 27.237,35.069 27.213,35.04 C 27.213,35.04 27.235,35.069 27.284,35.117 C 32.842,41.106 45.858,43.918 91.689,46.897 C 91.689,46.897 93.754,37.107 109.026,37.094 C 109.026,37.094 189.674,39.383 247.497,38.273 C 249.871,37.119 205.968,14.395 205.968,14.395 C 205.968,14.395 235.682,32.086 233.051,34.431 Z M 258.529,42.026 C 256.715,43.906 207.3,43.773 139.571,45.202 C 139.571,45.202 122.405,44.015 119.025,53.729 C 66.074,53.349 56.259,48.664 56.259,48.664 C 65.55,53.366 78.697,54.274 120.009,55.476 C 120.009,55.476 124.143,46.994 138.874,46.764 C 138.874,46.764 216.624,48.192 272.409,46.134 C 274.714,44.802 232.691,19.956 232.691,19.956 C 232.691,19.956 261.1,39.366 258.529,42.026 Z M 35.249,23.527 L 41.24,32.974 L 51.096,32.974 C 53.011,32.974 54.449,32.93 55.391,32.845 C 56.328,32.768 57.154,32.615 57.884,32.381 C 59.254,31.953 59.974,31.372 60.045,30.63 L 60.045,30.375 C 60.025,30.085 59.894,29.774 59.683,29.423 C 59.048,28.426 57.629,27.611 55.438,26.985 C 54.345,26.683 53.184,26.465 51.918,26.312 C 51.003,26.219 49.971,26.15 48.82,26.126 C 48.399,26.118 47.961,26.106 47.497,26.106 L 42.528,26.106 L 40.889,23.527 L 35.249,23.527 Z M 57.916,23.539 L 63.209,31.715 L 61.204,31.715 L 61.972,32.974 L 68.838,32.974 L 62.754,23.539 L 57.916,23.539 Z M 66.089,23.551 L 67.575,25.892 L 65.239,25.892 L 66.722,28.232 L 69.058,28.232 L 70.539,30.577 L 68.207,30.577 L 69.691,32.918 L 72.024,32.918 L 70.539,30.577 L 72.87,30.577 L 74.356,32.918 L 76.687,32.918 L 75.206,30.577 L 77.54,30.577 L 79.021,32.918 L 99.25,32.918 C 97.311,30.077 88.047,24.479 70.757,23.551 L 72.24,25.892 L 69.906,25.892 L 68.423,23.551 L 66.089,23.551 Z M 69.906,25.892 L 71.389,28.232 L 69.058,28.232 L 67.575,25.892 L 69.906,25.892 Z M 74.571,25.892 L 76.055,28.232 L 73.723,28.232 L 72.24,25.892 L 74.571,25.892 Z M 48.82,27.635 C 49.773,27.692 50.564,27.809 51.196,27.97 C 52.602,28.317 53.532,28.854 53.996,29.576 C 54.378,30.19 54.218,30.666 53.499,31.001 C 52.78,31.34 51.534,31.501 49.793,31.501 L 45.938,31.501 L 43.458,27.579 L 46.904,27.579 C 47.599,27.579 48.239,27.603 48.82,27.635 Z M 73.723,28.232 L 75.206,30.577 L 72.87,30.577 L 71.389,28.232 L 73.723,28.232 Z M 103.062,40.432 C 96.781,41.634 94.207,44.657 93.725,47.151 L 118.259,52.526 C 118.259,52.526 119.571,45.081 127.725,44.338 C 136.294,43.563 117.793,37.615 103.062,40.432 Z" fill="#ffffff" marker-start="none" marker-end="none"/>
  </g>
 </g>
</svg>
